<svg xmlns="http://www.w3.org/2000/svg" xmlns:xlink="http://www.w3.org/1999/xlink" viewBox="0 0 512 512"><defs><linearGradient id="linear-gradient" x1="256" x2="256" y2="512" gradientUnits="userSpaceOnUse"><stop offset="0" stop-color="#6fc6da"/><stop offset="1" stop-color="#0b809b"/></linearGradient><linearGradient id="linear-gradient-2" x1="255.99995" y1="387.67075" x2="255.99995" y2="59.58006" gradientUnits="userSpaceOnUse"><stop offset="0" stop-color="#6fc6da"/><stop offset="1" stop-color="#b7e2ec"/></linearGradient><linearGradient id="linear-gradient-3" x1="255.78349" y1="458.10847" x2="255.78349" y2="126.12508" gradientUnits="userSpaceOnUse"><stop offset="0" stop-color="#6fc6da"/><stop offset="0.5" stop-color="#fff" stop-opacity="0"/></linearGradient></defs><g id="Layer_2" data-name="Layer 2"><g id="CC_Data_Collector_App_Android_512" data-name="CC Data Collector App Android 512"><g id="back"><rect width="512" height="512" style="fill:url(#linear-gradient)"/></g><g id="Lightbulb"><path d="M418.17626,258.788c.84541-11.92839-17.8949-33.39916-37.62149-47.99374,14.654-25.68075,17.8949-60.76386,13.94945-65.39487-6.90429-9.12168-34.9444-13.61219-58.75731-11.367-4.509-29.32936-24.23554-58.51853-30.71721-59.9218-10.99061-2.66637-34.9444,12.34925-51.853,30.17141-21.55844-19.64646-54.671-28.76814-60.589-25.54057-10.145,5.47291-19.30349,32.837-21.13566,57.535-.04739.002-.09365-.00081-.141.0013l-.00016.00227c-28.84429.04726-59.46623,14.60284-62.27966,21.04763-4.65,10.52495,5.918,37.46879,19.7266,58.238-22.40385,18.80457-36.63522,50.65994-34.80353,57.11526,3.66354,11.50719,28.46289,25.11937,51.4304,31.57468-5.49539,28.76815,3.24076,63.00936,8.736,66.658,8.73614,5.89394,34.38091.8419,55.09378-8.27962,10.14521-4.77135,33.67637-13.75253,33.53534-38.17051-.14088-16.41872-13.66771-30.59244-14.9359-49.53719-1.268-18.94491,30.01283-15.01562,30.71737-1.54362.70453,13.89287.42262,27.92609,7.74969,50.09857s18.45857,29.32952,37.33975,37.04776c26.06739,8.70065,58.05279,5.7536,62.13911,1.12259,7.88538-8.69482,7.46779-37.43075.99813-61.69852.042-.01748.087-.03027.129-.04775l-.01347-.05034C393.45465,290.27912,417.75429,265.65313,418.17626,258.788Z" style="fill:#fff;stroke-miterlimit:10;stroke-width:28.444444444444454px;stroke:url(#linear-gradient-2)"/><path d="M380.5547,210.79426c19.72668,14.59456,38.467,36.06541,37.6216,47.99367-.42273,6.87628-24.79926,31.57478-51.43026,41.11738,6.48161,24.27749,6.90433,53.04564-.98633,61.74624-4.08625,4.631-36.07163,7.578-62.139-1.12266-18.88125-7.71827-30.01273-14.87523-37.33977-37.04774s-7.04525-36.20575-7.74977-50.09865c-.70453-13.4719-31.98539-17.40121-30.71726,1.54365s14.795,33.11844,14.93592,49.53732c.14091,24.41783-23.3902,33.39912-33.53535,38.1704-20.713,9.1216-46.35769,14.17357-55.09379,8.27961-5.49529-3.64865-14.23139-37.88975-8.7361-66.65787-22.96749-6.45529-47.76674-20.06753-51.43026-31.57478-1.83176-6.45529,12.39962-38.31073,34.80349-57.11527-13.8087-20.7692-24.37656-47.713-19.7267-58.23794,2.8181-6.45529,33.53535-21.04985,62.42084-21.04985,1.83176-24.6985,10.99058-52.06331,21.13572-57.53627,5.918-3.22764,39.03064,5.894,60.58908,25.54049,16.90857-17.82221,40.86239-32.83777,51.853-30.17146,6.48162,1.40333,26.2083,30.59246,30.71725,59.92192,23.81293-2.24531,51.853,2.24532,58.75732,11.36692C398.4496,150.03034,395.20879,185.11343,380.5547,210.79426Z" style="fill:#e75300"/><path d="M288.40293,269.31285c19.72667,2.24532,39.45334-14.17357,60.16637-1.82432,7.32706,4.631,14.65412,17.8222,18.31762,32.41678-8.73611,3.64865-19.304,4.631-28.88548,3.22764C320.95194,300.32629,301.648,283.90742,288.40293,269.31285ZM209.49624,248.684c-11.41329,16.83988-8.31339,42.5207-28.8855,54.87-7.327,4.631-20.713,4.631-35.36711.421,1.40905-9.5426,4.64986-20.06753,10.56786-27.92613C166.80207,262.85756,190.615,253.736,209.49624,248.684Zm2.25447-33.3991c-19.304,5.052-32.97173,27.92613-55.93922,23.71617-8.7361-1.40332-18.74034-10.52492-27.05373-23.71617,7.32705-6.45529,16.06315-11.92826,25.222-13.75257C170.46559,198.445,194.27851,206.16329,211.75071,215.28489Zm22.96749-23.71617c-17.89492-8.70061-42.69417-.421-57.91189-19.22553-5.49528-6.87629-6.48162-21.04986-5.49528-36.06542a49.87965,49.87965,0,0,1,27.05372,6.45529C213.15975,150.87233,226.82752,173.32552,234.7182,191.56872Zm32.1263-3.22765c-8.31339-19.22553-32.68992-28.76813-32.68992-52.9053,0-8.7006,8.31339-20.06752,18.88125-31.01345A55.28335,55.28335,0,0,1,269.5217,127.2965c5.918,16.41889,2.25447,42.09971-3.24081,61.18491h.56361ZM301.648,239.56239c16.48587-11.36692,21.13573-37.88973,44.52593-42.0997,8.73611-1.40333,22.54478,4.06963,34.38078,13.19123-4.64985,8.70061-12.39961,15.9979-20.14939,21.47085C345.75119,240.96571,320.95194,242.2287,301.648,239.56239Zm33.95807-105.52994c1.83175,9.5426.42272,18.6642-2.25448,28.34714-5.49528,16.83989-23.81292,33.39911-40.29878,44.766,5.4953-20.06753-7.327-42.5207,7.74977-61.18491C306.72056,138.52309,320.38834,135.43577,335.60606,134.03245Z" style="fill:#ad441d"/><path id="outline" d="M347.7238,237.45737c.141-1.8243.28191-3.64861.28191-5.61325a82.74193,82.74193,0,0,0-6.90445-32.97812c-.02889.01019-.05405.02492-.08294.03512a92.49981,92.49981,0,0,0-14.50889-23.22563c.02467-.03512.05421-.0696.07871-.10473A103.83423,103.83423,0,0,0,297.139,151.71432c-.01964.03787-.032.07656-.05145.11444a95.61385,95.61385,0,0,0-24.74467-9.42454c-.00194-.03027-.001-.062-.00308-.09227a72.40046,72.40046,0,0,0-37.19888.98241c.00666.027.01721.0518.02386.07883A99.061,99.061,0,0,0,207.8863,155.6339a100.96272,100.96272,0,0,0-25.02105,22.46288c.01736.013.036.02234.05339.03529a91.16,91.16,0,0,0-13.52083,23.26852c-.01964-.0021-.03992-.00647-.0594-.00857q-1.26812,3.25485-2.27167,6.64535c-.01461.0484-.031.096-.04561.14439q-.63881,2.154-1.17033,4.35582c-.07514.31226-.13422.63082-.20579.94453-.24539,1.07969-.476,2.16488-.67954,3.26092-.10322.55425-.19151,1.11352-.28353,1.672q-.22178,1.34541-.402,2.70505c-.07677.586-.14948,1.17277-.21375,1.7628-.10517.96378-.18729,1.9347-.259,2.909-.03766.51329-.08424,1.02335-.11231,1.53973-.08164,1.4936-.13357,2.99593-.13357,4.51252,0,2.5592.10922,5.02128.26746,7.439.00519.09259.00909.18664.01428.27923l.00455-.00065c3.42869,50.40888,39.63642,70.98,40.57612,101.46088,0,1.75308.10273,3.5034.25578,5.24855.00974.1057.018.2106.02824.31614a54.90492,54.90492,0,0,0,6.62027,21.80018,16.90015,16.90015,0,0,0,8.68924,6.92264c-2.29927.94371-4.228,2.65632-4.60308,5.14592a7.66145,7.66145,0,0,0,5.49539,8.27962l55.09378,3.22757v1.40344H220.90953c-2.67726.8419-5.07261,2.6662-5.49539,5.47291a7.66145,7.66145,0,0,0,5.49539,8.27961l55.51656,3.22758v1.40344H220.90953c-2.67726.84189-5.07261,2.6662-5.49539,5.4729a7.66145,7.66145,0,0,0,5.49539,8.27962l23.39013,5.47291a6.81093,6.81093,0,0,0-3.24076,4.631,7.16777,7.16777,0,0,0,5.918,8.27962h16.48584a6.53478,6.53478,0,0,0,5.918-6.87635,8.25311,8.25311,0,0,0-2.25447-5.47291l22.54473-5.89394h.42278c3.24075-.56137,5.918-3.22757,5.49523-6.45531a6.53463,6.53463,0,0,0-5.918-6.87618v-4.631c3.66353,0,6.059-3.22774,5.918-7.43772a6.53473,6.53473,0,0,0-5.918-6.87618h-.42263v-4.631h.42263c2.67725-.8419,5.0726-2.6662,5.49538-5.47291a7.743,7.743,0,0,0-3.48728-7.36261,18.28566,18.28566,0,0,0,7.99623-6.53042,56.6629,56.6629,0,0,0,4.18289-8.87936c.01623.01571.02223.01652.0443.03853.11231-.30756.191-.6279.29831-.93757.20611-.58921.38221-1.1862.56674-1.7814a49.4912,49.4912,0,0,0,2.37571-16.78731,45.81932,45.81932,0,0,1,1.97272-11.64754c-.0073-.02493-.01655-.04888-.02386-.07381,3.22566-10.096,9.73152-19.61571,16.51-30.31079.0469.022.09364.051.14055.07284,6.34063-9.96357,12.8223-20.90955,17.04949-34.24121-.01931-.007-.03862-.01036-.05794-.01732a103.796,103.796,0,0,0,4.98562-27.34642Z" style="fill:#fff;stroke-miterlimit:10;stroke-width:28.444444444444454px;stroke:url(#linear-gradient-3)"/><path d="M220.90952,375.68478a17.238,17.238,0,0,1-9.58153-7.29729,56.01424,56.01424,0,0,1-6.90434-27.36482c-.98633-31.99579-40.8624-53.04563-40.8624-109.17859,0-53.04562,50.44392-91.35637,92.15177-91.35637s92.15177,38.31074,92.15177,91.35637c0,56.133-39.87607,77.1828-40.8624,109.17859a51.44566,51.44566,0,0,1-7.327,28.34714,18.30665,18.30665,0,0,1-8.7361,6.87629h-.98633l-69.04339-.56132Z" style="fill:#ffd26c"/><path d="M273.60794,245.45634c1.40905-1.82432,11.41329.421,20.713-2.24532a35.64356,35.64356,0,0,0,7.327-3.64864c-14.6541-1.82432-25.64467-5.473-26.20829-8.7006,0-2.24532,9.15881-6.87629,14.23139-15.9979a69.64937,69.64937,0,0,0,3.24081-7.71828c-12.39963,8.27961-22.96749,12.77024-25.222,10.52493s2.8181-11.36693,1.40906-21.47085a38.31713,38.31713,0,0,0-2.25448-7.71828c-4.08624,14.17357-9.58153,25.11949-12.82234,25.11949-2.25447,0-5.07257-10.52493-12.39962-17.40121a65.93086,65.93086,0,0,0-6.90434-4.631c5.918,13.75257,8.31339,25.54049,5.4953,27.92614-1.83177,1.40333-10.56787-4.631-20.1494-5.052a42.00657,42.00657,0,0,0-8.31339.98232c12.82234,6.87628,21.98115,13.75258,21.55844,17.8222-.42271,2.24532-10.99057,3.22764-18.31763,9.54261a24.061,24.061,0,0,0-5.49529,5.894c14.23139-3.22764,25.64467-4.06964,27.47644-.98232.98632,2.24531-6.48163,9.5426-8.31339,19.64652a54.348,54.348,0,0,0-.42271,8.27961c8.7361-11.92825,17.47219-20.06753,20.14939-19.22553,2.8181.98232,1.40906,11.36693,5.918,20.62886a41.35228,41.35228,0,0,0,5.07257,6.87628c-.98633-14.59456.98633-26.94381,3.66352-27.92613s8.31339,7.71828,17.4722,11.36692a20.25588,20.25588,0,0,0,7.74977,1.82433C278.25779,258.78793,271.77617,248.263,273.60794,245.45634Z" style="fill:#fff"/><path d="M293.75732,305.37827c-9.44063-6.87629-24.79926-11.08626-34.38077-21.47085.56361,10.94592,1.26814,22.5935,6.90433,39.4334,7.32706,22.17251,18.45852,29.4698,37.33977,37.04773.14091,0,.14091,0,.28182.14034a50.72863,50.72863,0,0,0,3.2408-19.50619,45.82509,45.82509,0,0,1,1.97268-11.64759C306.29785,319.83251,301.648,310.99155,293.75732,305.37827Z" style="fill:#ffc656"/><path d="M288.40293,269.31285c10.14515,11.22659,23.81293,23.43551,37.33978,29.75045,6.34073-9.9636,12.82233-20.90952,17.0495-34.24111C324.19277,258.08626,306.29785,271.2775,288.40293,269.31285Z" style="fill:#ffc656"/><path d="M341.10134,198.866c-19.16307,6.73595-24.23564,30.17145-39.45336,40.69638,14.51319,2.105,31.98539,1.82432,46.07587-2.105.14091-1.82432.28182-3.64864.28182-5.61329A82.74232,82.74232,0,0,0,341.10134,198.866Z" style="fill:#ffc656"/><path d="M326.58816,175.57083a103.83531,103.83531,0,0,0-29.44912-23.8565c-9.01791,17.40121.84544,37.32841-4.08624,55.43128C305.02971,198.72567,318.27476,187.49909,326.58816,175.57083Z" style="fill:#ffc656"/><path d="M272.33979,142.31206a72.4012,72.4012,0,0,0-37.19888.98233c4.50895,18.38354,23.81291,27.92615,31.28088,44.48537C270.36712,173.88684,273.32612,156.90663,272.33979,142.31206Z" style="fill:#ffc656"/><path d="M211.328,153.53865a100.90107,100.90107,0,0,0-28.46278,24.55816c15.07682,11.22659,36.07163,5.75363,51.853,13.4719C229.22291,178.79848,220.90952,164.06357,211.328,153.53865Z" style="fill:#ffc656"/><path d="M169.33835,201.392a83.64437,83.64437,0,0,0-5.77709,30.45212c0,2.66631.14091,5.1923.28181,7.71828,18.31762-1.684,30.99906-19.78686,47.76673-24.13717C199.21018,208.8296,183.42884,202.93564,169.33835,201.392Z" style="fill:#ffc656"/><path d="M168.91564,265.10288c4.36805,13.33157,10.84968,24.2775,17.1904,34.24109,14.51319-13.33157,13.10414-35.50408,23.3902-50.66C196.39208,252.1923,180.89255,257.66527,168.91564,265.10288Z" style="fill:#ffc656"/><path d="M203.86,335.40938a36.04677,36.04677,0,0,1,.56362,5.473,56.27236,56.27236,0,0,0,4.22714,21.61119.519.519,0,0,1,.42271-.14033c10.14515-4.77131,33.67626-13.75257,33.53535-38.1704-.1409-16.13821-12.96324-30.03113-14.3723-48.555C218.51414,288.67872,205.26909,310.85122,203.86,335.40938Z" style="fill:#ffc656"/><path d="M289.67108,407.68057v4.631a6.53477,6.53477,0,0,1,5.918,6.87628c.42271,3.22764-2.25447,5.894-5.49529,6.45527h-.42271l-22.54478,5.894a8.25342,8.25342,0,0,1,2.25448,5.473,6.53479,6.53479,0,0,1-5.918,6.87628H246.97691a7.16779,7.16779,0,0,1-5.918-8.27961,6.81029,6.81029,0,0,1,3.24081-4.631l-23.3902-5.47295a7.66132,7.66132,0,0,1-5.4953-8.27961c.42271-2.80666,2.8181-4.631,5.4953-5.473H276.426v-1.40333l-55.51651-3.22763a7.66133,7.66133,0,0,1-5.4953-8.27961c.42271-2.80666,2.8181-4.631,5.4953-5.473h55.09378v-1.40333l-55.09378-3.22763a7.66134,7.66134,0,0,1-5.4953-8.27962c.42271-2.80665,2.8181-4.631,5.4953-5.47295h68.76156a7.66133,7.66133,0,0,1,5.49529,8.27961c-.42271,2.80666-2.8181,4.631-5.49529,5.473h-.42272v4.631h.42272a6.53479,6.53479,0,0,1,5.918,6.87628C295.73,404.4529,293.33461,407.68057,289.67108,407.68057Z" style="fill:#00758d"/></g></g></g></svg>