<?xml version="1.0" encoding="utf-8"?>
<svg viewBox="0 0 120 120" xmlns="http://www.w3.org/2000/svg">
  <style type="text/css">  
	.st0{fill:#E75300;}
	.st1{fill-rule:evenodd;clip-rule:evenodd;fill:#AD441D;}
	.st2{fill-rule:evenodd;clip-rule:evenodd;fill:#FFD26C;}
	.st3{fill:#FFFFFF;}
	.st4{fill-rule:evenodd;clip-rule:evenodd;fill:#FFC656;}
	.st5{fill:#00758D;}
	.st6{fill-rule:evenodd;clip-rule:evenodd;fill:#666362;}
</style>
  <path class="st0" d="M 101.37 44.3 C 107.87 48.9 114.17 55.9 113.87 59.7 C 113.77 61.9 105.67 69.9 96.67 73 C 98.77 80.7 98.97 90.1 96.37 92.8 C 95.07 94.3 84.77 95.3 76.07 92.4 C 76.57 90.7 76.97 88.6 76.97 86.1 C 77.27 75.8 90.57 69.1 90.57 51.1 C 90.57 34.1 73.77 21.7 59.97 21.7 C 46.17 21.7 29.37 34.1 29.37 51.1 C 29.37 69.2 42.67 75.9 42.97 86.1 C 43.07 89 43.47 91.3 44.17 93.1 C 37.27 96 29.07 97.5 26.17 95.6 C 24.37 94.4 21.47 83.4 23.17 74.1 C 15.47 72 7.17 67.5 6.17 63.9 C 5.57 61.8 10.37 51.5 17.77 45.5 C 13.07 39 9.67 30.3 11.17 26.8 C 12.07 24.8 22.37 20 31.87 20.1 C 32.57 12.2 35.57 3.3 38.87 1.6 C 40.87 0.6 51.77 3.6 58.97 9.8 C 64.57 4.2 72.57 -0.7 76.27 0.1 C 78.37 0.6 84.87 9.9 86.47 19.3 C 94.37 18.6 103.67 20 105.97 23 C 107.27 24.8 106.27 36.1 101.37 44.3 Z"/>
  <path class="st1" d="M 70.87 63.3 C 77.47 64 84.17 58.6 90.97 62.5 C 93.47 63.9 95.47 68.1 96.77 73 C 93.67 74.1 90.47 74.6 87.47 74.1 C 81.87 73.1 75.27 67.9 70.87 63.3 Z M 44.57 56.5 C 40.67 61.9 41.97 70.4 35.17 74.3 C 32.67 75.7 28.07 75.4 23.17 74.1 C 23.77 70.9 24.97 67.8 26.87 65.5 C 30.47 61.1 38.27 57.9 44.57 56.5 Z M 45.37 45.8 C 38.97 47.4 34.47 54.7 26.77 53.4 C 23.87 52.9 20.57 49.7 17.67 45.6 C 20.17 43.5 23.07 42 26.07 41.4 C 31.67 40.3 39.67 42.9 45.37 45.8 Z M 52.87 38.1 C 46.87 35.2 38.77 37.9 33.77 31.9 C 31.87 29.7 31.47 25.1 31.87 20.1 C 35.17 20.1 38.37 20.8 40.97 22.3 C 45.97 25.1 50.37 32.2 52.87 38.1 Z M 63.57 37.1 C 60.87 31.1 52.87 27.9 52.87 20.1 C 52.87 17.2 55.47 13.4 58.97 9.8 C 61.47 11.9 63.47 14.5 64.57 17.4 C 66.57 22.6 65.37 31 63.57 37.1 Z M 75.27 53.5 C 80.77 49.8 82.47 41.4 90.17 40 C 93.07 39.5 97.27 41.4 101.37 44.3 C 99.67 47.1 97.57 49.6 94.87 51.1 C 90.07 54 81.67 54.3 75.27 53.5 Z M 86.47 19.3 C 86.97 22.5 86.97 25.8 85.87 28.7 C 83.97 34 77.77 39.6 72.37 43.2 C 74.17 36.8 70.07 29.3 75.07 23.3 C 76.97 21 81.47 19.8 86.47 19.3 Z"/>
  <path class="st2" d="M 48.47 97.4 C 47.07 96.9 45.87 96.1 45.17 95 C 44.07 93 43.07 90.3 42.97 86.1 C 42.67 75.8 29.37 69.1 29.37 51.1 C 29.37 34.1 46.17 21.7 59.97 21.7 C 73.77 21.7 90.57 34.1 90.57 51.1 C 90.57 69.2 77.27 75.9 76.97 86.1 C 76.87 90.5 75.87 93.3 74.57 95.2 C 73.87 96.2 72.87 96.9 71.67 97.4 C 71.57 97.4 71.47 97.4 71.37 97.4 L 48.47 97.4 L 48.47 97.4 Z"/>
  <path class="st3" d="M 65.97 55.5 C 66.47 54.8 69.77 55.7 72.77 54.7 C 73.67 54.4 74.47 54 75.17 53.5 C 70.37 52.9 66.67 51.8 66.47 50.7 C 66.37 49.9 69.47 48.4 71.17 45.7 C 71.67 44.9 71.97 44.1 72.27 43.2 C 68.17 45.9 64.67 47.3 63.87 46.6 C 63.27 46 64.77 42.9 64.27 39.7 C 64.17 38.8 63.87 37.9 63.47 37.1 C 62.07 41.7 60.27 45.2 59.17 45.1 C 58.37 45 57.47 41.7 55.07 39.6 C 54.37 39 53.57 38.5 52.77 38.1 C 54.67 42.6 55.47 46.3 54.67 47 C 53.97 47.5 51.17 45.5 47.97 45.4 C 47.07 45.4 46.17 45.5 45.27 45.7 C 49.57 47.9 52.67 50.2 52.47 51.3 C 52.27 52.1 48.87 52.4 46.37 54.4 C 45.67 55 45.07 55.6 44.47 56.4 C 49.17 55.3 53.07 55.1 53.57 56.1 C 53.87 56.8 51.47 59.3 50.87 62.4 C 50.67 63.3 50.67 64.2 50.67 65.1 C 53.57 61.2 56.37 58.6 57.47 59 C 58.17 59.3 57.87 62.8 59.47 65.6 C 59.97 66.4 60.47 67.1 61.07 67.8 C 60.77 63 61.27 59.1 62.37 58.8 C 63.17 58.6 65.17 61.4 68.17 62.6 C 69.07 62.9 69.97 63.1 70.77 63.2 C 67.47 59.7 65.47 56.5 65.97 55.5 Z"/>
  <path class="st4" d="M 73.27 91.3 C 72.37 90.9 71.57 90.5 70.77 90 C 69.37 89.1 68.07 88 66.97 86.8 C 63.27 82.5 61.57 74.3 61.17 67.9 C 65.77 72.7 74.37 72.9 77.07 80.2 C 77.17 80.4 77.27 80.7 77.27 80.9 L 77.67 82.5 C 77.27 83.7 77.07 84.9 77.07 86.1 C 76.97 88.7 76.67 90.8 76.07 92.5 C 75.17 92.2 74.27 91.8 73.27 91.3 Z M 50.77 65.2 C 51.27 71.8 57.67 77.5 54.97 84.9 C 54.17 87 51.87 89 48.77 90.8 C 47.77 91.4 46.77 91.9 45.67 92.4 C 45.07 92.7 44.57 92.9 44.17 93.1 C 43.47 91.3 43.07 89 42.97 86.1 C 42.97 85.9 42.97 85.6 42.97 85.4 C 42.97 84.6 42.97 84 43.07 83.4 C 43.07 82.8 43.07 82.1 43.17 81.5 C 43.87 76.1 47.37 69.8 50.77 65.2 Z M 83.47 33.1 C 80.67 37 76.27 40.6 72.37 43.2 C 73.97 37.6 70.97 31 73.77 25.4 C 77.37 27.3 80.77 29.9 83.47 33.1 Z M 75.27 53.5 C 80.27 50.1 82.17 42.8 88.37 40.5 C 89.77 43.7 90.67 47.3 90.67 51.1 C 90.67 51.7 90.67 52.3 90.67 52.9 C 85.87 54 79.97 54.1 75.27 53.5 Z M 63.57 37.1 C 61.17 31.8 54.67 28.7 53.17 22.6 C 55.47 22 57.77 21.7 59.97 21.7 C 61.77 21.7 63.67 21.9 65.57 22.3 C 65.87 27.1 64.87 32.7 63.57 37.1 Z M 52.87 38.1 C 47.67 35.6 40.77 37.3 35.77 33.8 C 38.47 30.6 41.67 27.9 45.27 25.8 C 48.47 29.3 51.17 34 52.87 38.1 Z M 45.37 45.8 C 39.77 47.2 35.57 53 29.47 53.5 C 29.37 52.7 29.37 51.9 29.37 51.1 C 29.37 47.6 30.07 44.3 31.37 41.3 C 36.07 41.8 41.27 43.7 45.37 45.8 Z M 44.57 56.5 C 41.07 61.3 41.77 68.7 36.97 72.9 C 34.87 69.7 32.67 66.2 31.17 61.8 C 35.07 59.3 40.17 57.5 44.57 56.5 Z M 70.87 63.3 C 76.77 63.9 82.87 59.6 88.97 61.6 C 87.47 65.9 85.37 69.5 83.27 72.7 C 78.77 70.6 74.17 66.8 70.87 63.3 Z"/>
  <path class="st5" d="M 71.47 107.6 L 71.47 109.1 C 72.57 109.1 73.47 110.1 73.47 111.3 C 73.47 112.5 72.57 113.5 71.47 113.5 L 63.97 115.5 C 64.47 115.9 64.77 116.5 64.77 117.3 C 64.77 118.5 63.87 119.5 62.77 119.5 L 57.37 119.5 C 56.27 119.5 55.37 118.5 55.37 117.3 C 55.37 116.4 55.87 115.7 56.47 115.3 L 48.57 113.5 C 47.47 113.5 46.57 112.5 46.57 111.3 C 46.57 110.1 47.47 109.1 48.57 109.1 L 66.97 109.1 L 66.97 108.6 L 48.57 107.5 C 47.47 107.5 46.57 106.5 46.57 105.3 C 46.57 104.1 47.47 103.1 48.57 103.1 L 66.97 103.1 L 66.97 102.6 L 48.57 101.5 C 47.47 101.5 46.57 100.5 46.57 99.3 C 46.57 98.1 47.47 97.1 48.57 97.1 L 71.47 97.1 C 72.57 97.1 73.47 98.1 73.47 99.3 C 73.47 100.5 72.57 101.5 71.47 101.5 L 71.27 101.5 L 71.27 103 L 71.47 103 C 72.57 103 73.47 104 73.47 105.2 C 73.47 106.6 72.57 107.6 71.47 107.6 Z"/>
</svg>