<svg width="24" height="24" viewBox="0 0 24 24" xmlns="http://www.w3.org/2000/svg">
    <g fill="none" fill-rule="evenodd">
        <path d="M14.488 1.75c.73 0 1.385.446 1.652 1.125l.707 1.795h4.286v1.777h-1.798l-.683 13.68a1.708 1.708 0 0 1-1.706 1.623h-9.9c-.91 0-1.66-.714-1.705-1.623l-.686-13.68H2.86V4.67l4.285-.001.708-1.795A1.776 1.776 0 0 1 9.505 1.75h4.983zm-5.19 7.189-1.605 1.604 2.728 2.728-2.674 2.674L9.35 17.55l2.674-2.675 2.621 2.622 1.605-1.605-2.62-2.622 2.673-2.673L14.7 8.992l-2.674 2.673L9.298 8.94zm5.189-5.413H9.505l-.45 1.144h5.883l-.451-1.144z" fill="#fff"/>
    </g>
</svg>
