<svg width="24" height="24" viewBox="0 0 24 24" xmlns="http://www.w3.org/2000/svg">
    <path d="M1.586 4 3 2.586 21.414 21 20 22.414l-7.001-7L13 17.88l3.41 3.41L15 22.7l-3-3-3 3-1.41-1.41L11 17.88v-3.3a2.513 2.513 0 0 1-1.476-2.64L7.565 9.98A4.976 4.976 0 0 0 7 12.29H5c0-1.39.404-2.685 1.101-3.774L4.663 7.077A8.958 8.958 0 0 0 3 12.29H1c0-2.494.832-4.795 2.234-6.641L1.586 4zM12 1.29c6.07 0 11 4.93 11 11h-2A9 9 0 0 0 7.652 4.408L6.192 2.95A10.941 10.941 0 0 1 12 1.29zm0 4c3.87 0 7 3.13 7 7h-2a5.002 5.002 0 0 0-6.297-4.83L9.141 5.897A6.985 6.985 0 0 1 12 5.29z" fill="#000" fill-rule="evenodd"/>
</svg>
